<svg width="24" height="24" viewBox="0 0 24 24" fill="none" xmlns="http://www.w3.org/2000/svg">
<path fill-rule="evenodd" clip-rule="evenodd" d="M0.303984 9.11299L5.35398 2.68599C5.44796 2.56653 5.58377 2.48719 5.73398 2.46399L11.909 1.51399C11.9693 1.50474 12.0307 1.50474 12.091 1.51399L18.266 2.46399C18.4162 2.48719 18.552 2.56653 18.646 2.68599L23.696 9.11299C23.7813 9.22215 23.8263 9.35749 23.8232 9.49603C23.8201 9.63456 23.7691 9.76776 23.679 9.87299L12.342 23.102C12.2997 23.1514 12.2473 23.1911 12.1883 23.2182C12.1292 23.2454 12.065 23.2595 12 23.2595C11.935 23.2595 11.8708 23.2454 11.8117 23.2182C11.7527 23.1911 11.7002 23.1514 11.658 23.102L0.320984 9.87399C0.230569 9.76869 0.179458 9.63529 0.176358 9.49653C0.173258 9.35777 0.218362 9.22223 0.303984 9.11299ZM13.576 3.95499L17.91 7.95499C17.955 7.99626 18.0115 8.02283 18.072 8.03114C18.1324 8.03945 18.194 8.02911 18.2485 8.00151C18.3029 7.9739 18.3476 7.93034 18.3767 7.87665C18.4057 7.82295 18.4177 7.76167 18.411 7.70099L18.107 4.96099C18.1033 4.92553 18.1124 4.88992 18.1326 4.86055C18.1528 4.83117 18.1828 4.80994 18.2172 4.80068C18.2516 4.79141 18.2882 4.7947 18.3204 4.80997C18.3526 4.82524 18.3784 4.85148 18.393 4.88399L19.857 8.17799C19.9021 8.27957 19.968 8.37063 20.0503 8.44535C20.1326 8.52008 20.2295 8.57683 20.335 8.61199L22.123 9.20799C22.1565 9.2194 22.1849 9.24231 22.2032 9.27267C22.2215 9.30302 22.2284 9.33886 22.2228 9.37383C22.2171 9.40881 22.1993 9.44066 22.1724 9.46375C22.1456 9.48684 22.1114 9.49968 22.076 9.49999H20.438C20.3037 9.49999 20.1716 9.53378 20.0538 9.59827C19.936 9.66276 19.8363 9.75586 19.764 9.86899L13.326 19.928C13.305 19.9594 13.273 19.9817 13.2363 19.9905C13.1996 19.9993 13.161 19.994 13.128 19.9755C13.0951 19.9571 13.0703 19.927 13.0587 19.8911C13.047 19.8552 13.0492 19.8163 13.065 19.782L17.656 10.216C17.6925 10.1398 17.7091 10.0557 17.7042 9.97141C17.6994 9.88711 17.6733 9.80541 17.6284 9.73393C17.5835 9.66244 17.5212 9.6035 17.4473 9.56259C17.3734 9.52169 17.2904 9.50015 17.206 9.49999H6.79398C6.70947 9.49998 6.62633 9.52139 6.55233 9.56223C6.47834 9.60307 6.4159 9.66199 6.37085 9.73351C6.32581 9.80502 6.29963 9.88678 6.29475 9.97116C6.28988 10.0555 6.30647 10.1398 6.34298 10.216L10.934 19.782C10.9497 19.8163 10.952 19.8552 10.9403 19.8911C10.9286 19.927 10.9038 19.9571 10.8709 19.9755C10.838 19.994 10.7993 19.9993 10.7627 19.9905C10.726 19.9817 10.694 19.9594 10.673 19.928L4.23598 9.86799C4.16352 9.75504 4.06381 9.66214 3.94603 9.59783C3.82824 9.53352 3.69618 9.49988 3.56198 9.49999H1.92398C1.88856 9.49968 1.85439 9.48684 1.82753 9.46375C1.80066 9.44066 1.78284 9.40881 1.77721 9.37383C1.77158 9.33886 1.77851 9.30302 1.79677 9.27267C1.81503 9.24231 1.84345 9.2194 1.87698 9.20799L3.66498 8.61199C3.77044 8.57683 3.86741 8.52008 3.94971 8.44535C4.03201 8.37063 4.09783 8.27957 4.14298 8.17799L5.60698 4.88399C5.62159 4.85131 5.6474 4.82494 5.67975 4.80962C5.7121 4.79431 5.74886 4.79107 5.78339 4.80049C5.81793 4.8099 5.84795 4.83136 5.86805 4.86098C5.88815 4.89059 5.89699 4.92642 5.89298 4.96199L5.58898 7.70199C5.58252 7.76259 5.59466 7.82371 5.62379 7.87724C5.65292 7.93076 5.69766 7.97414 5.75206 8.00161C5.80645 8.02908 5.86793 8.03934 5.92829 8.03101C5.98866 8.02268 6.04506 7.99616 6.08998 7.95499L10.424 3.95499C10.4519 3.92926 10.4885 3.91505 10.5264 3.91523C10.5644 3.91541 10.6008 3.92996 10.6285 3.95595C10.6561 3.98195 10.6729 4.01745 10.6754 4.05531C10.6779 4.09317 10.666 4.13058 10.642 4.15999L7.89998 7.50999C7.86402 7.55393 7.84127 7.60717 7.83437 7.66353C7.82747 7.71989 7.83671 7.77705 7.861 7.82837C7.8853 7.87969 7.92366 7.92306 7.97163 7.95344C8.0196 7.98382 8.0752 7.99996 8.13198 7.99999H15.866C15.9228 7.99996 15.9784 7.98382 16.0263 7.95344C16.0743 7.92306 16.1127 7.87969 16.137 7.82837C16.1613 7.77705 16.1705 7.71989 16.1636 7.66353C16.1567 7.60717 16.1339 7.55393 16.098 7.50999L13.358 4.15999C13.3352 4.13054 13.3243 4.0937 13.3272 4.0566C13.3301 4.01951 13.3467 3.98482 13.3737 3.95927C13.4007 3.93372 13.4363 3.91913 13.4735 3.91834C13.5107 3.91755 13.5469 3.93061 13.575 3.95499H13.576Z" fill="black"/>
</svg>
