<svg width="20" height="20" viewBox="0 0 20 20" fill="none" xmlns="http://www.w3.org/2000/svg">
<g clip-path="url(#clip0_1_129)">
<path d="M10 1C7.555 1 7.24975 1.01125 6.28975 1.054C5.33125 1.099 4.67875 1.24975 4.105 1.4725C3.51325 1.702 3.01075 2.01025 2.5105 2.5105C2.01025 3.01075 1.70125 3.5125 1.4725 4.105C1.24975 4.67875 1.09825 5.33125 1.054 6.28975C1.009 7.24975 1 7.555 1 10C1 12.445 1.01125 12.7502 1.054 13.7102C1.099 14.668 1.24975 15.3213 1.4725 15.895C1.702 16.486 2.01025 16.9893 2.5105 17.4895C3.01075 17.989 3.5125 18.2988 4.105 18.5275C4.6795 18.7495 5.332 18.9017 6.28975 18.946C7.24975 18.991 7.555 19 10 19C12.445 19 12.7502 18.9887 13.7102 18.946C14.668 18.901 15.3213 18.7495 15.895 18.5275C16.486 18.298 16.9893 17.989 17.4895 17.4895C17.989 16.9893 18.2988 16.4883 18.5275 15.895C18.7495 15.3213 18.9017 14.668 18.946 13.7102C18.991 12.7502 19 12.445 19 10C19 7.555 18.9887 7.24975 18.946 6.28975C18.901 5.332 18.7495 4.678 18.5275 4.105C18.298 3.51325 17.989 3.01075 17.4895 2.5105C16.9893 2.01025 16.4883 1.70125 15.895 1.4725C15.3213 1.24975 14.668 1.09825 13.7102 1.054C12.7502 1.009 12.445 1 10 1ZM13.6375 2.67325C14.515 2.7145 14.9912 2.86 15.3077 2.9845C15.7292 3.14725 16.0277 3.34225 16.3442 3.6565C16.6585 3.9715 16.8535 4.27075 17.0163 4.69225C17.1393 5.00875 17.2863 5.485 17.326 6.3625C17.3688 7.312 17.3785 7.597 17.3785 10C17.3785 12.403 17.3672 12.6887 17.323 13.6375C17.2772 14.515 17.131 14.9912 17.0072 15.3077C16.8392 15.7292 16.648 16.0277 16.333 16.3442C16.0188 16.6585 15.715 16.8535 15.298 17.0163C14.983 17.1393 14.4992 17.2863 13.6217 17.326C12.6662 17.3688 12.385 17.3785 9.9775 17.3785C7.56925 17.3785 7.288 17.3672 6.33325 17.323C5.455 17.2772 4.97125 17.131 4.65625 17.0072C4.2295 16.8392 3.93625 16.648 3.622 16.333C3.30625 16.0188 3.1045 15.715 2.947 15.298C2.82325 14.983 2.67775 14.4992 2.632 13.6217C2.59825 12.6767 2.58625 12.385 2.58625 9.98875C2.58625 7.59175 2.59825 7.29925 2.632 6.343C2.67775 5.4655 2.82325 4.9825 2.947 4.6675C3.1045 4.24 3.30625 3.9475 3.622 3.63175C3.93625 3.3175 4.2295 3.115 4.65625 2.95825C4.97125 2.83375 5.4445 2.6875 6.322 2.6425C7.27825 2.60875 7.5595 2.5975 9.96625 2.5975L10 2.62C12.4023 2.62 12.6887 2.632 13.6375 2.67325ZM10 5.3785C7.44625 5.3785 5.3785 7.4485 5.3785 10C5.3785 12.5538 7.4485 14.6215 10 14.6215C12.5538 14.6215 14.6215 12.5515 14.6215 10C14.6215 7.44625 12.5515 5.3785 10 5.3785ZM10 13C8.3425 13 7 11.6575 7 10C7 8.3425 8.3425 7 10 7C11.6575 7 13 8.3425 13 10C13 11.6575 11.6575 13 10 13ZM15.8845 5.19625C15.8845 5.7925 15.4 6.27625 14.8045 6.27625C14.2082 6.27625 13.7245 5.79175 13.7245 5.19625C13.7245 4.60075 14.209 4.117 14.8045 4.117C15.3992 4.11625 15.8845 4.60075 15.8845 5.19625Z" fill="black"/>
</g>
<defs>
<clipPath id="clip0_1_129">
<rect width="20" height="20" fill="white"/>
</clipPath>
</defs>
</svg>
