<svg width="20" height="20" viewBox="0 0 20 20" fill="none" xmlns="http://www.w3.org/2000/svg">
<g clip-path="url(#clip0_1_132)">
<path fill-rule="evenodd" clip-rule="evenodd" d="M19.9608 3.90537C19.2234 4.22443 18.4359 4.44179 17.6068 4.54104C18.4517 4.03988 19.1017 3.25001 19.4092 2.30758C18.6167 2.7628 17.7384 3.09417 16.8035 3.27872C16.0568 2.49213 14.9927 2 13.8111 2C11.547 2 9.71126 3.80694 9.71126 6.03301C9.71126 6.3529 9.74876 6.66048 9.81709 6.95494C6.4089 6.79664 3.38819 5.18573 1.36661 2.7505C1.01079 3.3427 0.811633 4.03086 0.811633 4.78054C0.811633 6.18311 1.5366 7.4159 2.63489 8.14015C1.96242 8.11883 1.32994 7.93674 0.778301 7.6349V7.68493C0.778301 9.64115 2.18908 11.2726 4.0665 11.6441C3.72234 11.7352 3.35903 11.7844 2.98654 11.7844C2.72489 11.7844 2.47406 11.7598 2.22324 11.7138C2.74905 13.3157 4.26066 14.4837 6.05975 14.5165C4.65981 15.5984 2.88571 16.2431 0.974959 16.2431C0.649973 16.2431 0.32582 16.2242 0 16.1881C1.82409 17.3315 3.97317 18 6.29724 18C13.8419 18 17.9626 11.8516 17.9626 6.52843C17.9626 6.357 17.9626 6.18393 17.9501 6.01169C18.7509 5.44656 19.45 4.73215 20 3.92177L19.9608 3.90537Z" fill="black"/>
</g>
<defs>
<clipPath id="clip0_1_132">
<rect width="20" height="20" fill="white"/>
</clipPath>
</defs>
</svg>
