<svg width="20" height="20" viewBox="0 0 20 20" fill="none" xmlns="http://www.w3.org/2000/svg">
<g clip-path="url(#clip0_1_126)">
<path fill-rule="evenodd" clip-rule="evenodd" d="M19.5825 5.16177C19.3467 4.31565 18.6866 3.65448 17.8418 3.41834C16.2829 3.00001 10.009 3.00001 10.009 3.00001C10.009 3.00001 3.75088 2.99167 2.17614 3.41834C1.33138 3.65448 0.671268 4.31565 0.435508 5.16177C0.140001 6.76033 -0.00568533 8.38306 0.000169674 10.0088C-0.00454443 11.6284 0.141137 13.2449 0.435508 14.8374C0.671268 15.6835 1.33138 16.3447 2.17614 16.5808C3.73337 17 10.009 17 10.009 17C10.009 17 16.2663 17 17.8418 16.5808C18.6866 16.3447 19.3467 15.6835 19.5825 14.8374C19.8707 13.2443 20.0102 11.6278 19.9993 10.0088C20.0114 8.38363 19.8718 6.76091 19.5825 5.16177ZM8.00659 13.0072V7.00121L13.2285 10.0088L8.00659 13.0072Z" fill="black"/>
</g>
<defs>
<clipPath id="clip0_1_126">
<rect width="20" height="20" fill="white"/>
</clipPath>
</defs>
</svg>
